# xmcd
#
# Track frame offsets:
#	150
#	22725
#	41628
#	56151
#	75520
#	94479
#	116688
#	133559
#
# Disc length: 2023 seconds
#
# Revision: 1
# Processed by: cddbd v1.5.2PL0 Copyright (c) Steve Scherf et al.
# Submitted via: audiograbber 1.83.01
#
DISCID=6207e508
DTITLE=J.W. Roy - Ach, Zalig Man
DYEAR=2010
DGENRE=Nederlands
TTITLE0=Hier is het goed (Eersel)
TTITLE1=Susanne Antonis (Duizel)
TTITLE2=Tinus van den Hollander (Reusel)
TTITLE3=Dansen bij Van Loon (Wintelre)
TTITLE4=Ronde van Steensel (Steensel)
TTITLE5=Piggy (Netersel)
TTITLE6=Trouwen in Hulsel (Hulsel)
TTITLE7=Klein Antwerpen (Knegsel)
EXTD=Een cd met 8 liedjes over 8 dorpen in het Brabantse land waarin hij met no
EXTD=stalgische blik de geboortestreek van zijn jeugd bezingt.\nAch, Zalig Man 
EXTD=is een roerende hommage aan de Brabantse dorpscultuur, waarin verbondenhei
EXTD=d een belangrijke rol speelt. Het is niet alleen een ode aan, maar uitdruk
EXTD=kelijk ook voor de bewoners van deze streek.
EXTT0=
EXTT1=
EXTT2=
EXTT3=
EXTT4=
EXTT5=
EXTT6=
EXTT7=
PLAYORDER=
